#define SALIBANKICO_width 48
#define SALIBANKICO_height 48
static unsigned char SALIBANKICO_bits[] = {
   0x00, 0x00, 0x00, 0x00, 0x00, 0x00, 0x00, 0x00, 0x00, 0x00, 0x00, 0x00,
   0x00, 0x00, 0x00, 0x00, 0x00, 0x00, 0x00, 0x00, 0x00, 0x00, 0x00, 0x00,
   0x00, 0x00, 0x00, 0x00, 0x00, 0x00, 0x00, 0x00, 0x00, 0x00, 0x00, 0x00,
   0x00, 0x00, 0xfc, 0x1f, 0x00, 0x00, 0x00, 0x00, 0xfc, 0x3f, 0x00, 0x00,
   0x00, 0x00, 0xb8, 0x1c, 0x00, 0x00, 0x00, 0x00, 0x38, 0x1c, 0x00, 0x00,
   0x00, 0x00, 0x30, 0x0c, 0x00, 0x00, 0x00, 0x00, 0x38, 0x0c, 0x00, 0x00,
   0x00, 0x00, 0x30, 0x1c, 0x00, 0x00, 0x00, 0x00, 0x38, 0x0c, 0x00, 0x00,
   0x00, 0x00, 0x30, 0x1c, 0x00, 0x00, 0x00, 0x00, 0x38, 0x0c, 0x00, 0x00,
   0x00, 0x00, 0x30, 0x1c, 0x00, 0x00, 0x00, 0x00, 0x38, 0x0c, 0x00, 0x00,
   0x00, 0x00, 0x30, 0x1c, 0x00, 0x00, 0x00, 0x00, 0x38, 0x0c, 0x00, 0x00,
   0x00, 0x00, 0x30, 0x1c, 0x00, 0x00, 0x00, 0x00, 0x38, 0x2c, 0x00, 0x00,
   0x00, 0x00, 0x30, 0x58, 0x00, 0x00, 0x00, 0x00, 0x38, 0x08, 0x00, 0x00,
   0x00, 0x00, 0xb0, 0x55, 0x09, 0x00, 0x00, 0x00, 0x38, 0x52, 0x08, 0x00,
   0x00, 0x00, 0x30, 0xa4, 0x05, 0x00, 0x00, 0x00, 0x38, 0x1c, 0x03, 0x00,
   0x00, 0x00, 0x30, 0xa1, 0x04, 0x00, 0x00, 0x00, 0x38, 0x4d, 0x2a, 0x00,
   0x00, 0x00, 0x70, 0xa2, 0x54, 0x00, 0x00, 0x00, 0x38, 0x94, 0x02, 0x00,
   0x00, 0x00, 0x30, 0x4d, 0x05, 0x00, 0x00, 0x00, 0x38, 0x98, 0x0a, 0x00,
   0x00, 0x00, 0x30, 0x22, 0x01, 0x00, 0x00, 0x00, 0x38, 0x29, 0x09, 0x00,
   0x00, 0x00, 0x30, 0x4d, 0x08, 0x00, 0x00, 0x00, 0x38, 0x48, 0x00, 0x00,
   0x00, 0x00, 0x30, 0x5c, 0x00, 0x00, 0x00, 0x00, 0xf0, 0x0e, 0x00, 0x00,
   0x00, 0x00, 0xe0, 0x07, 0x00, 0x00, 0x00, 0x00, 0xc0, 0x03, 0x00, 0x00,
   0x00, 0x00, 0x00, 0x00, 0x00, 0x00, 0x00, 0x00, 0x00, 0x00, 0x00, 0x00,
   0x00, 0x00, 0x00, 0x00, 0x00, 0x00, 0x00, 0x00, 0x00, 0x00, 0x00, 0x00,
   0x00, 0x00, 0x00, 0x00, 0x00, 0x00, 0x00, 0x00, 0x00, 0x00, 0x00, 0x00 };
